{
    "asset" : {
        "generator" : "Khronos glTF Blender I/O v1.6.16",
        "version" : "2.0"
    },
    "scene" : 0,
    "scenes" : [
        {
            "name" : "Scene",
            "nodes" : [
                0,
                1,
                2
            ]
        }
    ],
    "nodes" : [
        {
            "name" : "Camera.001",
            "rotation" : [
                0.412063866853714,
                0.5859779715538025,
                -0.46107086539268494,
                0.5236858129501343
            ],
            "translation" : [
                10.623357772827148,
                3.533656597137451,
                -0.8359408378601074
            ]
        },
        {
            "mesh" : 0,
            "name" : "leafs",
            "translation" : [
                0.003691254183650017,
                1.6352322101593018,
                -0.0221475251019001
            ]
        },
        {
            "mesh" : 1,
            "name" : "body",
            "scale" : [
                0.33000001311302185,
                0.9900000691413879,
                0.33000001311302185
            ],
            "translation" : [
                0,
                0.9863430857658386,
                0
            ]
        }
    ],
    "materials" : [
        {
            "doubleSided" : true,
            "name" : "Material.001",
            "pbrMetallicRoughness" : {}
        },
        {
            "doubleSided" : true,
            "name" : "Material.002",
            "pbrMetallicRoughness" : {}
        }
    ],
    "meshes" : [
        {
            "name" : "Cone.001",
            "primitives" : [
                {
                    "attributes" : {
                        "POSITION" : 0,
                        "NORMAL" : 1
                    },
                    "indices" : 2,
                    "material" : 0
                }
            ]
        },
        {
            "name" : "Cone",
            "primitives" : [
                {
                    "attributes" : {
                        "POSITION" : 3,
                        "NORMAL" : 4
                    },
                    "indices" : 5,
                    "material" : 1
                }
            ]
        }
    ],
    "accessors" : [
        {
            "bufferView" : 0,
            "componentType" : 5126,
            "count" : 96,
            "max" : [
                0.9857362508773804,
                1.9256618022918701,
                0.9794307351112366
            ],
            "min" : [
                -1.012603759765625,
                -0.9999383091926575,
                -1.0186136960983276
            ],
            "type" : "VEC3"
        },
        {
            "bufferView" : 1,
            "componentType" : 5126,
            "count" : 96,
            "type" : "VEC3"
        },
        {
            "bufferView" : 2,
            "componentType" : 5123,
            "count" : 126,
            "type" : "SCALAR"
        },
        {
            "bufferView" : 3,
            "componentType" : 5126,
            "count" : 36,
            "max" : [
                0.9614735245704651,
                1,
                0.9794307351112366
            ],
            "min" : [
                -1.012603759765625,
                -0.9999864101409912,
                -1.0186136960983276
            ],
            "type" : "VEC3"
        },
        {
            "bufferView" : 4,
            "componentType" : 5126,
            "count" : 36,
            "type" : "VEC3"
        },
        {
            "bufferView" : 5,
            "componentType" : 5123,
            "count" : 48,
            "type" : "SCALAR"
        }
    ],
    "bufferViews" : [
        {
            "buffer" : 0,
            "byteLength" : 1152,
            "byteOffset" : 0
        },
        {
            "buffer" : 0,
            "byteLength" : 1152,
            "byteOffset" : 1152
        },
        {
            "buffer" : 0,
            "byteLength" : 252,
            "byteOffset" : 2304
        },
        {
            "buffer" : 0,
            "byteLength" : 432,
            "byteOffset" : 2556
        },
        {
            "buffer" : 0,
            "byteLength" : 432,
            "byteOffset" : 2988
        },
        {
            "buffer" : 0,
            "byteLength" : 96,
            "byteOffset" : 3420
        }
    ],
    "buffers" : [
        {
            "byteLength" : 3516,
            "uri" : "data:application/octet-stream;base64,"
        }
    ]
}
